<svg width="167" height="35" viewBox="0 0 167 35" fill="none" xmlns="http://www.w3.org/2000/svg">
<path d="M6.63029 4.86719L0 8.75092L0.0153243 16.4952L6.50005 20.2704L6.50771 27.3487L13.1533 31.2131L19.7836 27.3332L19.7722 20.3169L26.3296 16.4758L26.3181 8.73157L19.6764 4.86719L13.1763 8.67348L6.63029 4.86719Z" fill="url(#paint0_linear)"/>
<path d="M63.7849 31V4.45784H56.7469L48.9602 23.6251L40.9863 4.45784H34.1729V31H39.1145V12.544L46.7515 31H51.0566L58.6936 12.3943V31H63.7849ZM70.5057 19.6943C70.618 18.0097 72.0406 16.063 74.6237 16.063C77.4688 16.063 78.6668 17.8599 78.7416 19.6943H70.5057ZM79.2283 24.4861C78.6293 26.1333 77.3565 27.2938 75.0355 27.2938C72.5647 27.2938 70.5057 25.5343 70.3934 23.101H83.5709C83.5709 23.0261 83.6458 22.2774 83.6458 21.5661C83.6458 15.6512 80.2391 12.0199 74.5488 12.0199C69.8319 12.0199 65.4893 15.8384 65.4893 21.7159C65.4893 27.9302 69.9442 31.5615 74.998 31.5615C79.5278 31.5615 82.4478 28.9036 83.3837 25.7215L79.2283 24.4861ZM90.0499 20.4056C90.0499 18.2717 91.3227 16.5871 93.494 16.5871C95.8899 16.5871 96.9006 18.1969 96.9006 20.2559V31H101.88V19.3948C101.88 15.3517 99.7832 12.0948 95.216 12.0948C93.2319 12.0948 91.0232 12.9558 89.9001 14.8651V12.5815H85.0709V31H90.0499V20.4056ZM110.577 7.07836H106.084V9.66145C106.084 11.3086 105.186 12.5815 103.239 12.5815H102.303V16.9989H105.635V25.5718C105.635 29.1282 107.881 31.2621 111.475 31.2621C112.935 31.2621 113.834 31 114.283 30.8128V26.6949C114.021 26.7697 113.347 26.8446 112.748 26.8446C111.325 26.8446 110.577 26.3205 110.577 24.7107V16.9989H114.283V12.5815H110.577V7.07836ZM128.181 31H132.935C132.86 30.3636 132.748 29.0908 132.748 27.6682V12.5815H127.769V23.2882C127.769 25.422 126.496 26.9195 124.287 26.9195C121.966 26.9195 120.918 25.2723 120.918 23.2133V12.5815H115.939V24.2241C115.939 28.2297 118.485 31.4867 122.94 31.4867C124.886 31.4867 127.02 30.7379 128.031 29.0159C128.031 29.7646 128.106 30.6256 128.181 31ZM140.545 31V20.2184C140.545 18.1969 141.817 16.5871 143.989 16.5871C146.235 16.5871 147.246 18.0846 147.246 20.0687V31H152.187V20.2184C152.187 18.2343 153.46 16.5871 155.594 16.5871C157.878 16.5871 158.851 18.0846 158.851 20.0687V31H163.68V19.0579C163.68 14.1163 160.423 12.0574 157.017 12.0574C154.583 12.0574 152.636 12.881 151.176 15.1271C150.241 13.143 148.219 12.0574 145.711 12.0574C143.689 12.0574 141.331 13.0307 140.32 14.8276V12.5815H135.566V31H140.545Z" fill="#232323"/>
<defs>
<linearGradient id="paint0_linear" x1="1.01144" y1="4.86719" x2="29.9457" y2="21.3297" gradientUnits="userSpaceOnUse">
<stop offset="0.0416667" stop-color="#6BBECB"/>
<stop offset="0.354167" stop-color="#4770DB"/>
<stop offset="0.65625" stop-color="#4151CC"/>
<stop offset="1" stop-color="#1B42A7"/>
</linearGradient>
</defs>
</svg>
