<svg width="86" height="60" viewBox="0 0 86 60" fill="none" xmlns="http://www.w3.org/2000/svg">
<path d="M74.0527 34.4917C71.0525 34.5063 68.4449 35.1785 66.2614 36.1722C65.4603 34.6962 64.6592 33.381 64.5178 32.4165C64.3608 31.2913 64.1723 30.6045 64.3608 29.26C64.5492 27.9156 65.3975 26.0012 65.3818 25.8551C65.3661 25.709 65.1933 25.0221 63.4654 25.0075C61.7375 24.9929 60.2452 25.3144 60.0724 25.7382C59.8996 26.162 59.5697 27.1265 59.3498 28.1202C59.0514 29.5815 55.894 34.7985 54.0876 37.5313C53.5064 36.4645 53.0037 35.5292 52.8937 34.7839C52.7367 33.6587 52.5482 32.9719 52.7367 31.6274C52.9252 30.283 53.7734 28.3686 53.7577 28.2225C53.742 28.0763 53.5692 27.3895 51.8413 27.3749C50.1134 27.3603 48.6211 27.6818 48.4483 28.1056C48.2755 28.5294 48.087 29.5231 47.7257 30.4876C47.3644 31.4521 43.1703 40.1617 42.0708 42.4122C41.5053 43.5666 41.0183 44.4873 40.6727 45.1157C40.6727 45.1157 40.657 45.1595 40.6099 45.2326C40.3114 45.7733 40.1387 46.0655 40.1387 46.0655C40.1387 46.0655 40.1387 46.0655 40.1387 46.0801C39.903 46.4747 39.6517 46.84 39.526 46.84C39.4318 46.84 39.259 45.7879 39.5575 44.3557C40.1858 41.3308 41.6781 36.6252 41.6624 36.4645C41.6624 36.3768 41.9451 35.5584 40.6884 35.1346C39.4632 34.7109 39.0234 35.4123 38.9134 35.4123C38.8035 35.4123 38.7249 35.6607 38.7249 35.6607C38.7249 35.6607 40.0915 30.3707 36.1173 30.3707C33.6354 30.3707 30.2111 32.8988 28.5146 35.1785C27.4464 35.7192 25.1687 36.8736 22.7339 38.1158C21.8071 38.598 20.8489 39.0803 19.9536 39.5333C19.8907 39.4748 19.8279 39.4018 19.7651 39.3433C14.9584 34.5647 6.0675 31.189 6.44449 24.7737C6.58587 22.4355 7.44982 16.2979 23.5193 8.84501C36.7457 2.78041 47.2702 4.46096 49.0923 8.1874C51.6999 13.5067 43.4531 23.3854 29.7869 24.8175C24.5718 25.3582 21.8386 23.4877 21.1474 22.7863C20.4248 22.0556 20.3149 22.0117 20.0478 22.1579C19.608 22.3771 19.8907 23.0347 20.0478 23.4146C20.4562 24.4084 22.137 26.162 24.9802 27.0242C27.4935 27.7841 33.604 28.2079 41.0026 25.5482C49.2808 22.5671 55.7526 14.2812 53.8519 7.33982C51.9512 0.296123 39.3847 -2.02742 27.4935 1.90361C20.4248 4.24176 12.7592 7.92436 7.24561 12.7176C0.69528 18.4168 -0.341463 23.3708 0.0826598 25.4459C1.60636 32.8111 12.5236 37.6043 16.8905 41.1554C16.6706 41.2723 16.4663 41.3746 16.2936 41.4623C14.1101 42.4706 5.78475 46.5185 3.71126 50.8003C1.35503 55.652 4.08826 59.13 5.89471 59.5976C11.5025 61.0443 17.2675 58.4431 20.362 54.1468C23.4565 49.8504 23.0795 44.2681 21.6501 41.7107C21.6344 41.6815 21.6186 41.6523 21.5872 41.623C22.1527 41.3161 22.7339 40.9946 23.2994 40.6878C24.4147 40.074 25.5143 39.5041 26.4568 39.0364C25.9227 40.3955 25.53 42.0176 25.3415 44.3557C25.1059 47.1031 26.3154 50.6688 27.9019 52.0717C28.6088 52.6854 29.4413 52.7 29.9754 52.7C31.829 52.7 32.6615 51.2679 33.5883 49.5728C34.7193 47.4977 35.7403 45.0864 35.7403 45.0864C35.7403 45.0864 34.468 51.604 37.9238 51.604C39.1805 51.604 40.4528 50.0842 41.0183 49.3097C41.0183 49.3243 41.0183 49.3243 41.0183 49.3243C41.0183 49.3243 41.0497 49.2805 41.1126 49.1782C41.2382 48.9882 41.3168 48.8713 41.3168 48.8713C41.3168 48.8713 41.3168 48.8567 41.3168 48.8421C41.8194 48.0237 42.9504 46.1678 44.6312 43.0844C46.7989 39.1095 48.8881 34.1409 48.8881 34.1409C48.8881 34.1409 49.0766 35.3539 49.7207 37.3705C50.0977 38.5542 50.8831 39.8548 51.5114 41.1116C51.0088 41.7692 50.6946 42.1345 50.6946 42.1345C50.6946 42.1345 50.6946 42.1345 50.7103 42.1491C50.3019 42.646 49.862 43.1867 49.3751 43.7128C47.6629 45.6125 45.6208 47.7899 45.3381 48.4183C45.0082 49.1636 45.0867 49.7043 45.7151 50.1427C46.1706 50.4642 46.9874 50.508 47.82 50.4642C49.3594 50.3619 50.4433 50.0112 50.9773 49.792C51.8099 49.5143 52.7838 49.0905 53.6949 48.4621C55.3756 47.3077 56.3967 45.6564 56.3024 43.4789C56.2553 42.2806 55.8312 41.0823 55.3128 39.9571C55.4699 39.7525 55.6113 39.5479 55.7683 39.3433C58.423 35.7338 60.4808 31.7736 60.4808 31.7736C60.4808 31.7736 60.6693 32.9865 61.3134 35.0031C61.6275 36.0261 62.2716 37.1367 62.8371 38.2181C60.3394 40.1032 58.8 42.2953 58.2502 43.7274C57.2606 46.387 58.0303 47.5853 59.4912 47.863C60.1509 47.9945 61.0934 47.7022 61.7846 47.4246C62.6643 47.1615 63.701 46.7085 64.6906 46.0363C66.3714 44.8818 67.9894 43.2744 67.8951 41.0969C67.848 40.1032 67.5652 39.1241 67.1725 38.1743C69.2931 37.3559 72.0264 36.9029 75.5136 37.2828C82.9907 38.1012 84.4673 42.4414 84.1845 44.2681C83.9018 46.0948 82.331 47.0885 81.8126 47.3953C81.2942 47.7022 81.1214 47.8045 81.1686 48.0237C81.2314 48.3452 81.4827 48.3306 81.9226 48.2722C82.5352 48.1699 85.8496 46.7962 85.991 43.4351C86.2266 39.1387 81.8283 34.4478 74.0527 34.4917ZM16.3721 52.5831C13.8902 55.0967 10.4344 56.0465 8.9421 55.2428C7.33986 54.3806 7.96819 50.6688 11.0156 48.0091C12.8692 46.387 15.2568 44.8818 16.8433 43.9612C17.2046 43.7566 17.7387 43.4643 18.3828 43.099C18.4927 43.0405 18.5555 43.0113 18.5555 43.0113C18.6812 42.9382 18.8069 42.8652 18.9325 42.7921C20.0478 46.5916 18.9797 49.9381 16.3721 52.5831ZM34.4366 41.1554C33.5726 43.1136 31.7662 48.126 30.6666 47.8484C29.7241 47.6146 29.1429 43.8151 30.4781 40.0594C31.1535 38.1743 32.583 35.9238 33.4155 35.047C34.7664 33.6441 36.2587 33.1764 36.62 33.7464C37.0755 34.4917 34.9706 39.9279 34.4366 41.1554ZM49.3437 47.7899C48.9824 47.9653 48.6368 48.0822 48.4797 47.9945C48.3698 47.936 48.6368 47.7022 48.6368 47.7022C48.6368 47.7022 50.5061 45.8317 51.2444 44.9841C51.6685 44.4873 52.1712 43.9027 52.7052 43.2451C52.7052 43.3036 52.7052 43.3766 52.7052 43.4351C52.7052 45.671 50.3804 47.1761 49.3437 47.7899ZM60.8421 45.3495C60.5751 45.1741 60.6222 44.5896 61.5176 42.7629C61.8631 42.0468 62.68 40.8485 64.078 39.6941C64.2351 40.1617 64.345 40.6147 64.3293 41.0385C64.3136 43.8589 62.1459 44.9111 60.8421 45.3495Z" fill="#CD6799"/>
</svg>
